<svg xmlns="http://www.w3.org/2000/svg" viewBox="0 0 450 172.86"><title>logo-tall</title><path d="M140.11,125.37a14.77,14.77,0,0,0-5.19-5.19,14.29,14.29,0,0,0-7.3-2H116.8v28.93h10.82a14.3,14.3,0,0,0,3.85-.52,14.37,14.37,0,0,0,6.38-3.71,14.73,14.73,0,0,0,2.27-2.93A14.4,14.4,0,0,0,140.11,125.37Zm-19.56-3.42h7.06a10.44,10.44,0,0,1,4.17.84,10.78,10.78,0,0,1,5.71,5.72,10.72,10.72,0,0,1,0,8.32,10.77,10.77,0,0,1-2.3,3.41,11,11,0,0,1-3.41,2.29,10.44,10.44,0,0,1-4.17.84h-7.06V121.95Z" transform="translate(-25 -24.46)" style="fill:#fff"/><path d="M207.18,139.26q-1.49-3.43-3-6.85l-3-6.86q-1.51-3.45-3-6.95l-0.18-.41H195L182.4,147.12h4.11l2.81-6.53h14.34l2.86,6.53h4.08l-0.41-.94ZM202,136.84H191l5.52-12.64Z" transform="translate(-25 -24.46)" style="fill:#fff"/><rect x="228.67" y="93.74" width="3.75" height="28.93" style="fill:#fff"/><polygon points="283.96 93.74 280.21 93.74 280.21 122.67 296.59 122.67 296.59 118.91 283.96 118.91 283.96 93.74" style="fill:#fff"/><path d="M370.52,129.85l-8.57-11.55-0.08-.1h-4.66L367.42,132c0.21,0.29.4,0.55,0.56,0.79a4.39,4.39,0,0,1,.37.64,3.41,3.41,0,0,1,.23.66,3.63,3.63,0,0,1,.08.8v12.2h3.76v-12.2a3.15,3.15,0,0,1,.33-1.47,10.55,10.55,0,0,1,.91-1.44l10.23-13.82h-4.65Z" transform="translate(-25 -24.46)" style="fill:#fff"/><rect x="63.47" y="131.6" width="4.02" height="40.81" style="fill:#fff"/><polygon points="93.03 131.6 89.01 131.6 89.01 172.41 111.48 172.41 111.48 168.39 93.03 168.39 93.03 131.6" style="fill:#fff"/><polygon points="132.29 131.6 128.27 131.6 128.27 172.41 150.74 172.41 150.74 168.39 132.29 168.39 132.29 131.6" style="fill:#fff"/><rect x="168.54" y="131.6" width="4.02" height="40.81" style="fill:#fff"/><path d="M252.4,161.69a21.15,21.15,0,0,0-6.63-4.47,20.95,20.95,0,0,0-16.25,0,21.35,21.35,0,0,0-6.63,4.47,21,21,0,0,0-4.48,6.63,21,21,0,0,0,0,16.26,21.05,21.05,0,0,0,4.48,6.63,21.39,21.39,0,0,0,6.63,4.47,21,21,0,0,0,16.24,0,20.9,20.9,0,0,0,11.1-11.1,21,21,0,0,0,0-16.26A21.16,21.16,0,0,0,252.4,161.69Zm2.08,14.76a16.64,16.64,0,0,1-2.3,8.5,16.91,16.91,0,0,1-6,6,16.76,16.76,0,0,1-4,1.7,17.21,17.21,0,0,1-8.95,0,16.58,16.58,0,0,1-4-1.7,17.6,17.6,0,0,1-3.41-2.64A16.35,16.35,0,0,1,223.1,185a17.6,17.6,0,0,1-1.7-4,16.73,16.73,0,0,1,0-8.95,17.68,17.68,0,0,1,1.71-4,16.47,16.47,0,0,1,2.63-3.41,17.6,17.6,0,0,1,3.41-2.63,16.52,16.52,0,0,1,4-1.7,16.69,16.69,0,0,1,4.47-.6,16.34,16.34,0,0,1,6.55,1.33,17,17,0,0,1,9,9A16.34,16.34,0,0,1,254.48,176.45Z" transform="translate(-25 -24.46)" style="fill:#fff"/><path d="M305.19,189.84a5,5,0,0,0-.33-0.6l-23.1-33.07-0.08-.11h-4.9v40.81h4V161.8l0.1,0.14,24.33,34.82,0.08,0.11h3.87V156.06h-4v33.78Z" transform="translate(-25 -24.46)" style="fill:#fff"/><rect x="353.29" y="131.6" width="4.02" height="40.81" style="fill:#fff"/><polygon points="450 135.63 450 131.6 425.48 131.6 425.48 172.41 450 172.41 450 168.39 429.5 168.39 429.5 153.82 446.09 153.82 446.09 149.8 429.5 149.8 429.5 135.63 450 135.63" style="fill:#fff"/><path d="M358.2,186.4q-2.18-5-4.37-10l-4.4-10q-2.21-5-4.43-10.15l-0.07-.15h-3.31l-17.67,40.45-0.15.35h4.41l4.11-9.53h21.92l4.18,9.53h4.36l-0.15-.35Zm-15-24.19,0-.17,0,0.18a5.06,5.06,0,0,0,.26.75l8.87,20.34H334.09L343,163A4.33,4.33,0,0,0,343.22,162.21Z" transform="translate(-25 -24.46)" style="fill:#fff"/><path d="M424.53,177.86a10.72,10.72,0,0,0,3.05-2.61,12.53,12.53,0,0,0,2-3.56,12,12,0,0,0,.72-4.11,11.26,11.26,0,0,0-.91-4.49,11.58,11.58,0,0,0-6.14-6.14,11.3,11.3,0,0,0-4.51-.91H404.35v40.81h4V179.12h7.78l13.26,17.64,0.08,0.1h5l-13.38-17.8A10,10,0,0,0,424.53,177.86Zm1.13-7.35a7.8,7.8,0,0,1-1.62,2.4,7.52,7.52,0,0,1-2.4,1.61,7.39,7.39,0,0,1-2.92.58H408.37v-15h10.35a7.25,7.25,0,0,1,2.92.6,7.7,7.7,0,0,1,2.4,1.62,7.81,7.81,0,0,1,1.62,2.38,7.21,7.21,0,0,1,.6,2.91A7.29,7.29,0,0,1,425.67,170.51Z" transform="translate(-25 -24.46)" style="fill:#fff"/><path d="M46,191.86l0,0.13-0.05-.14L30.19,156.21l-0.07-.15H25v40.81h4V163.55l14.68,33.32h4.46l14.74-33.25v33.25h4V156.06H61.82Z" transform="translate(-25 -24.46)" style="fill:#fff"/><path d="M311.37,32.79a7,7,0,0,1,1-2.79,5.27,5.27,0,0,1,1.74-1.55,15.6,15.6,0,0,1,3.58-1.24V24.46h-19L276.87,79.26,257.1,24.46H239.44V62.25a72.26,72.26,0,0,1-.71,10.48,39.94,39.94,0,0,1-2.22,8.7,26,26,0,0,1-3.94,6.93,18.62,18.62,0,0,1-5.46,4.7,24.13,24.13,0,0,1-6.76,2.48,40.84,40.84,0,0,1-8.45.79c-2.93,0-10.86-.07-12.36-0.23V29.58c2.29-.15,10.43-0.23,13-0.23a28.74,28.74,0,0,1,14.33,3.38,20.59,20.59,0,0,1,6.83,6.43V28.42a32.81,32.81,0,0,0-3.51-1.62q-6.79-2.33-17.44-2.34H182.35v2.76a18.89,18.89,0,0,1,3.72,1.33,4.87,4.87,0,0,1,1.72,1.55,6.85,6.85,0,0,1,.93,2.73,41.16,41.16,0,0,1,.28,5.72V87.26a41.26,41.26,0,0,1-.28,5.69,7.22,7.22,0,0,1-.9,2.76,4.76,4.76,0,0,1-1.75,1.58,17.41,17.41,0,0,1-3.72,1.3v2.76h26.11a94.47,94.47,0,0,0,15.1-1,33.82,33.82,0,0,0,10-3.21,29.22,29.22,0,0,0,8.85-7A33.14,33.14,0,0,0,248.76,78a58.66,58.66,0,0,0,2.11-16.76c0-.36,0-0.66,0-1,0-4.08-.06-8.18-0.17-12.11q-0.25-9-.53-12.45h1l20.73,56.72h6.48l22.31-55.82h1q-0.34,3.21-.59,11.91t-0.25,17.21V87.26a32.94,32.94,0,0,1-.45,6.53,5.2,5.2,0,0,1-1.69,3,11.84,11.84,0,0,1-4.45,1.8v2.76h23.49V98.58a15.86,15.86,0,0,1-3.75-1.35,4.75,4.75,0,0,1-1.74-1.69,7.72,7.72,0,0,1-.84-2.76,42.69,42.69,0,0,1-.25-5.52V38.54A38.54,38.54,0,0,1,311.37,32.79Z" transform="translate(-25 -24.46)" style="fill:#d37d28"/></svg>