<svg xmlns="http://www.w3.org/2000/svg" viewBox="0 0 500 62.8"><title>logo</title><rect x="128.33" y="0.71" width="3.71" height="62.09" style="fill:#fff"/><path d="M194.73,49.22A12.56,12.56,0,0,0,200.29,46a12.94,12.94,0,0,0,2-2.54,12.53,12.53,0,0,0,0-12.71,12.86,12.86,0,0,0-4.52-4.52,12.45,12.45,0,0,0-6.36-1.72H181.9V49.67h9.48A12.41,12.41,0,0,0,194.73,49.22ZM185.61,46V28.2h5.77a8.66,8.66,0,0,1,3.46.7,8.94,8.94,0,0,1,4.74,4.75,8.9,8.9,0,0,1,0,6.9,8.92,8.92,0,0,1-1.91,2.83,9.17,9.17,0,0,1-2.83,1.91,8.67,8.67,0,0,1-3.46.7h-5.77Z" transform="translate(-25.47 -24.49)" style="fill:#fff"/><path d="M287.28,49.67h4l-0.51-1.16-2.43-5.57-0.14-.33q-1.27-2.93-2.55-5.85l-2.57-5.85Q281.82,28,280.52,25l-0.22-.5h-2.83l-11,25.18h4.06l2.4-5.56h11.9Zm-4.06-9.27h-8.64l4.32-9.9Z" transform="translate(-25.47 -24.49)" style="fill:#fff"/><rect x="330.69" width="3.71" height="25.18" style="fill:#fff"/><polygon points="407.12 0 403.41 0 403.41 25.18 417.89 25.18 417.89 21.48 407.12 21.48 407.12 0" style="fill:#fff"/><path d="M511.21,37.36a3.68,3.68,0,0,1,.29.51,2.78,2.78,0,0,1,.17.51,2.89,2.89,0,0,1,.06.63V49.67h3.71V39a2.45,2.45,0,0,1,.25-1.13,8.72,8.72,0,0,1,.75-1.2l9-12.19h-4.59l-7.29,9.77-7-9.44-0.25-.33h-4.6l9,12.21C510.92,36.94,511.07,37.17,511.21,37.36Z" transform="translate(-25.47 -24.49)" style="fill:#fff"/><rect x="204.75" y="30.13" width="3.61" height="31.62" style="fill:#fff"/><polygon points="227.81 30.13 224.19 30.13 224.19 61.75 241.85 61.75 241.85 58.13 227.81 58.13 227.81 30.13" style="fill:#fff"/><polygon points="257.69 30.13 254.08 30.13 254.08 61.75 271.74 61.75 271.74 58.13 257.69 58.13 257.69 30.13" style="fill:#fff"/><rect x="284.73" y="30.13" width="3.61" height="31.62" style="fill:#fff"/><path d="M355.48,59a16.37,16.37,0,0,0-5.14-3.46,16.22,16.22,0,0,0-12.58,0A16.53,16.53,0,0,0,332.63,59a16.28,16.28,0,0,0-3.47,5.14,16.24,16.24,0,0,0,0,12.6,16.28,16.28,0,0,0,3.47,5.14,16.53,16.53,0,0,0,5.13,3.46,16.24,16.24,0,0,0,12.58,0,16.18,16.18,0,0,0,8.59-8.59,16.26,16.26,0,0,0,0-12.6A16.39,16.39,0,0,0,355.48,59Zm1.12,11.43a12.39,12.39,0,0,1-1.71,6.33,12.6,12.6,0,0,1-4.5,4.5,12.53,12.53,0,0,1-3,1.27,12.8,12.8,0,0,1-6.66,0,12.32,12.32,0,0,1-3-1.27,13.14,13.14,0,0,1-2.54-2,12.19,12.19,0,0,1-2-2.54,13.13,13.13,0,0,1-1.27-3,12.46,12.46,0,0,1,0-6.66,13.16,13.16,0,0,1,1.27-3,12.26,12.26,0,0,1,2-2.54,13.08,13.08,0,0,1,2.54-2,12.3,12.3,0,0,1,3-1.27,12.47,12.47,0,0,1,3.33-.44,12.17,12.17,0,0,1,4.88,1,12.67,12.67,0,0,1,6.68,6.68A12.16,12.16,0,0,1,356.59,70.42Z" transform="translate(-25.47 -24.49)" style="fill:#fff"/><polygon points="369.73 55.15 352.26 30.13 348.1 30.13 348.1 61.75 351.72 61.75 351.72 35.65 369.95 61.75 373.32 61.75 373.32 30.13 369.73 30.13 369.73 55.15" style="fill:#fff"/><rect x="425.37" y="30.13" width="3.61" height="31.62" style="fill:#fff"/><polygon points="480.32 61.75 499.54 61.75 499.54 58.13 483.94 58.13 483.94 47.6 496.57 47.6 496.57 43.98 483.94 43.98 483.94 33.74 499.54 33.74 499.54 30.13 480.32 30.13 480.32 61.75" style="fill:#fff"/><path d="M436.07,77.88q-1.66-3.82-3.33-7.62l-3.35-7.63Q427.71,58.8,426,54.9l-0.12-.28H423L409.2,86.24h4L416.29,79h16.32l3.18,7.26h3.92l-0.29-.66ZM424.46,60.32l6.56,15H417.89Z" transform="translate(-25.47 -24.49)" style="fill:#fff"/><path d="M486.45,71.73a8.42,8.42,0,0,0,2.4-2.05,9.82,9.82,0,0,0,1.55-2.79,9.39,9.39,0,0,0,.56-3.22,8.86,8.86,0,0,0-.71-3.53,9.1,9.1,0,0,0-4.82-4.82,8.9,8.9,0,0,0-3.55-.71H470.68V86.24h3.61V72.73h5.51l10.15,13.51h4.47L484.17,72.6A7.76,7.76,0,0,0,486.45,71.73Zm0.47-5.95a5.68,5.68,0,0,1-1.18,1.74A5.45,5.45,0,0,1,484,68.69a5.35,5.35,0,0,1-2.12.42h-7.6V58.23h7.6a5.24,5.24,0,0,1,2.11.43,5.58,5.58,0,0,1,2.92,2.91,5.2,5.2,0,0,1,.43,2.1A5.26,5.26,0,0,1,486.93,65.79Z" transform="translate(-25.47 -24.49)" style="fill:#fff"/><polygon points="172.64 57.05 160.79 30.13 156.44 30.13 156.44 61.75 160.05 61.75 160.05 37.42 170.77 61.75 174.53 61.75 185.29 37.46 185.29 61.75 188.91 61.75 188.91 30.13 184.56 30.13 172.64 57.05" style="fill:#fff"/><path d="M129.27,31.67a5.59,5.59,0,0,1,.77-2.25,4.24,4.24,0,0,1,1.4-1.25,12.55,12.55,0,0,1,2.88-1V25H119l-17.49,44.1L85.61,25H71.4V55.37a58.14,58.14,0,0,1-.57,8.43,32.14,32.14,0,0,1-1.79,7,20.88,20.88,0,0,1-3.17,5.58,15,15,0,0,1-4.4,3.79,19.42,19.42,0,0,1-5.44,2,32.86,32.86,0,0,1-6.8.64c-2.36,0-8.74-.06-9.95-0.18V29.08c1.84-.12,8.39-0.18,10.45-0.18a23.13,23.13,0,0,1,11.53,2.72,16.57,16.57,0,0,1,5.5,5.17V28.14a26.4,26.4,0,0,0-2.82-1.31,43.92,43.92,0,0,0-14-1.88H25.47v2.22a15.2,15.2,0,0,1,3,1.07,3.92,3.92,0,0,1,1.38,1.24,5.51,5.51,0,0,1,.75,2.2,33.12,33.12,0,0,1,.23,4.6v39.2a33.2,33.2,0,0,1-.23,4.58,5.81,5.81,0,0,1-.73,2.22,3.83,3.83,0,0,1-1.41,1.27,14,14,0,0,1-3,1v2.22h21a76,76,0,0,0,12.15-.77,27.21,27.21,0,0,0,8.07-2.58A23.51,23.51,0,0,0,73.8,77.8,26.67,26.67,0,0,0,78.9,68a47.2,47.2,0,0,0,1.7-13.48c0-.29,0-0.53,0-0.82,0-3.29,0-6.58-.13-9.74q-0.2-7.25-.43-10H80.8L97.48,79.61h5.21L120.64,34.7h0.77q-0.27,2.58-.48,9.58t-0.2,13.85V75.49a26.5,26.5,0,0,1-.36,5.26,4.18,4.18,0,0,1-1.36,2.4,9.53,9.53,0,0,1-3.58,1.45v2.22h18.9V84.6a12.76,12.76,0,0,1-3-1.09,3.82,3.82,0,0,1-1.4-1.36,6.21,6.21,0,0,1-.68-2.22,34.35,34.35,0,0,1-.2-4.44V36.29A31,31,0,0,1,129.27,31.67Z" transform="translate(-25.47 -24.49)" style="fill:#d47c01"/></svg>